<?xml version="1.0" encoding="utf-8"?>
<!DOCTYPE svg PUBLIC "-//W3C//DTD SVG 1.0//EN" "http://www.w3.org/TR/2001/REC-SVG-20010904/DTD/svg10.dtd">
<svg version="1.0" xmlns="http://www.w3.org/2000/svg" width="1454px" height="559px" viewBox="0 0 1454 559" preserveAspectRatio="xMidYMid meet">
 <g fill="#ffffff">
  <path d="M0 279.62 l0 -279.62 727 0 727 0 0 279.62 0 279.62 -727 0 -727 0 0 -279.62z m591.12 219.32 c8.91 -1.14 19.92 -3.50 21.32 -4.63 0.61 -0.52 4.98 -2.27 9.61 -3.76 18.79 -6.20 38.18 -16.43 55.84 -29.45 11.36 -8.48 28.75 -25.86 37.92 -37.84 39.15 -51.38 50.42 -117.53 30.41 -177.82 -11.62 -34.69 -33.20 -67.11 -59.86 -89.48 -9.44 -7.95 -9.87 -9 -6.47 -17.91 6.20 -16.17 -7.43 -39.58 -32.51 -55.57 -17.74 -11.36 -28.66 -18.87 -35.48 -24.38 -12.58 -10.05 -31.81 -29.18 -42.64 -42.55 l-2.62 -3.23 -4.46 5.42 c-11.62 14.16 -32.94 34.69 -46.92 45.35 -3.84 2.97 -13.11 9.26 -20.62 14.07 -16.43 10.49 -23.42 16.08 -29.80 23.77 -6.64 7.95 -10.14 14.59 -11.97 22.11 -1.40 6.12 -1.40 6.73 0.09 11.80 0.87 2.97 1.75 7.17 2.01 9.35 l0.44 3.93 -7.34 5.85 c-30.85 24.47 -56.01 63.70 -66.23 103.28 -7.60 29.53 -8.48 52.86 -3.06 82.05 12.93 69.82 63.26 128.19 129.85 150.38 13.02 4.37 29.71 8.04 41.59 9.17 10.31 0.96 33.29 1.05 40.89 0.09z m253.14 -34.34 c0.17 -5.16 0 -9.35 -0.35 -9.35 -0.44 0 -0.61 6.38 -0.52 14.24 0.17 14.24 0.44 12.58 0.87 -4.89z m36.35 9.44 c3.93 0 7.17 -0.26 7.17 -0.61 0 -0.44 -3.41 -0.70 -7.51 -0.70 l-7.43 0 0.26 -8.74 c0.17 -4.81 0 -8.74 -0.35 -8.74 -0.44 0 -0.61 6.38 -0.52 14.24 0.09 8.48 0.35 12.23 0.61 9.35 l0.52 -4.81 7.25 0z m88.25 6.99 c0.96 -2.01 0.87 -2.18 -1.14 -2.18 -2.27 0 -2.53 0.61 -1.66 2.97 0.79 2.01 1.66 1.75 2.80 -0.79z m30.93 -11.53 c-0.09 -7.51 -0.35 -13.89 -0.61 -14.07 -0.26 -0.26 -0.44 5.85 -0.44 13.63 0 7.78 0.26 14.16 0.70 14.16 0.35 0 0.52 -6.12 0.35 -13.72z m46.40 13.11 l-7.25 -0.35 0 -13.54 c0 -7.43 -0.26 -13.37 -0.61 -13.19 -0.44 0.26 -0.61 6.55 -0.44 14.07 l0.26 13.63 7.60 -0.17 7.60 -0.17 -7.17 -0.26z m54.79 -13.89 c0 -10.14 -0.26 -13.46 -1.05 -13.46 -0.87 0 -1.05 3.23 -0.87 13.98 0.35 18.26 1.92 17.83 1.92 -0.52z m126.09 4.89 c3.84 0 6.82 0.44 7.43 1.05 0.79 0.79 1.05 0.70 1.05 -0.44 0 -1.31 -1.05 -1.49 -7.43 -1.49 l-7.34 0 -0.35 -8.91 c-0.09 -4.98 -0.26 -2.53 -0.26 5.42 0 7.95 0.09 12.15 0.26 9.44 l0.35 -5.07 6.29 0z m-292.20 2.01 c0 -0.44 -0.35 -1.49 -0.79 -2.45 -0.70 -1.66 -0.79 -1.66 -0.79 0.26 -0.09 1.83 -0.44 1.92 -7.95 1.92 -6.90 0 -7.86 -0.17 -7.86 -1.49 0 -1.31 -0.17 -1.40 -0.87 -0.26 -0.44 0.70 -0.87 1.57 -0.87 2.01 0 0.35 4.37 0.61 9.61 0.61 5.33 0 9.61 -0.26 9.52 -0.61z m263.19 -10.31 c0 -5.16 -0.26 -9.61 -0.52 -9.87 -0.26 -0.26 -0.44 4.19 -0.44 9.87 0 5.68 0.17 10.14 0.52 9.87 0.26 -0.26 0.44 -4.72 0.44 -9.87z m-22.19 -5.42 c-0.17 -2.80 -0.26 -0.52 -0.26 4.98 0 5.50 0.09 7.78 0.26 5.07 0.17 -2.80 0.17 -7.34 0 -10.05z m-20.10 7.86 c-0.26 -0.87 -0.44 -0.17 -0.44 1.49 0 1.66 0.17 2.36 0.44 1.57 0.17 -0.87 0.17 -2.27 0 -3.06z m84.76 -5.24 c-0.26 -0.87 -0.44 -0.17 -0.44 1.49 0 1.66 0.17 2.36 0.44 1.57 0.17 -0.87 0.17 -2.27 0 -3.06z m-312.91 -4.28 c-0.26 -0.79 -0.52 -1.75 -0.52 -2.18 0 -1.66 -2.36 -0.70 -3.32 1.40 -0.96 2.10 -0.87 2.18 1.66 2.18 2.10 0 2.62 -0.35 2.18 -1.40z m216 -2.71 c-0.87 -0.17 -2.45 -0.17 -3.50 0 -1.14 0.17 -0.44 0.35 1.49 0.35 1.92 0.09 2.80 -0.09 2.01 -0.35z m-325.49 -39.58 c0.44 -0.35 -1.92 -0.79 -5.24 -1.05 -7.08 -0.52 -11.53 -2.62 -16.60 -7.86 -7.43 -7.60 -11.62 -20.71 -11.62 -36.26 0 -17.13 4.02 -26.91 13.98 -33.82 l2.18 -1.57 -2.18 0.61 c-9.09 2.53 -22.98 14.33 -27.26 23.33 -4.98 10.14 -6.03 18.35 -3.76 27.18 5.07 19.57 22.89 32.16 43.25 30.58 3.58 -0.26 6.90 -0.79 7.25 -1.14z m244.84 0.87 l2.62 -0.61 -3.50 -0.61 c-12.67 -2.36 -19.57 -9.09 -24.55 -23.77 -3.15 -9.09 -3.93 -26.30 -1.75 -35.74 1.75 -7.51 5.94 -14.59 10.49 -18 4.63 -3.32 3.58 -3.23 -4.11 0.61 -12.50 6.29 -21.23 17.65 -24.82 32.16 -4.63 19.05 9.79 40.37 30.85 45.44 5.59 1.40 10.66 1.57 14.77 0.52z m108.35 -0.96 c1.22 -0.44 0.09 -0.70 -3.50 -0.79 -9.61 -0.09 -17.65 -5.85 -22.98 -16.43 -4.37 -8.83 -5.68 -16.60 -5.24 -31.02 0.52 -14.77 2.18 -20.36 8.04 -26.48 2.10 -2.10 3.50 -3.84 3.23 -3.84 -1.49 0 -9.87 5.59 -13.81 9.09 -8.83 7.95 -15.12 21.15 -15.12 31.72 0 15.73 10.14 30.06 25.34 36.09 8.21 3.23 18.44 3.93 24.03 1.66z m-1064.55 0.35 c-1.75 -0.70 -3.67 -5.16 -3.67 -8.74 l-0.09 -3.32 -1.14 2.71 c-0.70 1.57 -2.71 4.37 -4.46 6.38 l-3.23 3.58 6.82 -0.09 c3.84 0 6.38 -0.26 5.77 -0.52z m105.38 -1.75 c-3.06 -3.23 -4.72 -6.82 -11.62 -24.29 -6.82 -17.48 -31.37 -80.91 -35.04 -90.61 -1.40 -3.76 -2.80 -6.82 -3.15 -6.82 -0.35 0 -3.76 1.92 -7.69 4.37 -3.93 2.36 -7.95 4.54 -8.83 4.81 -1.22 0.44 -1.66 1.40 -1.66 3.50 0 2.71 0.26 2.97 2.80 3.23 l2.71 0.26 13.37 34.52 c9.52 24.55 13.37 35.39 13.19 37.57 l-0.17 3.06 -31.02 0 -30.93 0 -0.52 -2.18 c-0.52 -2.18 -0.52 -2.18 -1.49 0.52 l-0.96 2.71 5.24 0.61 c2.97 0.26 18.35 0.52 34.25 0.52 l29.01 0 2.80 8.30 c1.57 4.54 2.80 9.87 2.80 11.80 0 4.02 -1.83 8.21 -4.11 9.52 -1.14 0.61 3.58 0.87 15.82 0.96 l17.48 0 -2.27 -2.36z m640.49 0.44 c-0.87 -1.57 -1.05 -9.96 -0.87 -38.45 l0.26 -36.44 -8.13 -2.62 c-12.32 -3.93 -22.11 -5.24 -32.59 -4.54 -3.41 0.26 -2.45 0.52 4.19 0.96 7.51 0.52 8.91 0.87 12.23 3.15 2.27 1.66 4.11 3.76 4.72 5.59 0.70 2.18 1.05 12.58 1.05 34.69 0.09 27.61 -0.09 31.81 -1.31 32.94 -0.70 0.79 -0.96 1.40 -0.52 1.40 0.52 0 1.14 1.22 1.49 2.62 l0.61 2.62 9.96 0 10.05 0 -1.14 -1.92z m250.43 0.44 c-0.44 -0.87 -0.87 -30.93 -1.05 -66.85 l-0.26 -65.19 -11.27 5.33 c-6.20 2.97 -11.36 5.59 -11.36 5.85 0 0.26 0.87 0.87 2.01 1.31 1.92 0.87 1.92 1.14 2.18 20.01 l0.17 19.05 -3.67 -0.52 c-2.10 -0.26 -7.86 -0.61 -12.93 -0.87 -9 -0.35 -9 -0.35 -1.31 0.26 7.95 0.61 12.06 2.01 15.99 5.59 l1.92 1.75 0 34.25 c0 25.43 -0.26 34.43 -1.05 35.21 -0.79 0.79 -0.79 1.05 0 1.05 0.61 0 1.05 1.14 1.05 2.62 l0 2.62 10.14 0 c9.35 0 10.05 -0.09 9.44 -1.49z m104.86 0 c-0.44 -0.87 -0.87 -18.17 -1.05 -38.45 l-0.26 -36.87 -6.73 -2.18 c-10.22 -3.41 -19.05 -4.98 -27.52 -4.98 -4.28 0 -7.95 0.17 -8.30 0.44 -0.26 0.26 2.45 0.52 6.03 0.52 7.60 0 12.32 1.83 15.90 6.03 l2.36 2.88 0 33.99 c0 25.86 -0.26 33.99 -1.05 33.99 -0.79 0 -0.79 0.26 0 1.05 0.61 0.61 1.05 1.92 1.05 3.06 0 2.01 0.17 2.01 10.14 2.01 9.35 0 10.05 -0.09 9.44 -1.49z m46.49 0.35 c0.26 -0.26 0 -1.40 -0.70 -2.53 -0.87 -1.57 -1.14 -13.11 -1.14 -58.37 0 -31.02 -0.09 -59.68 -0.26 -63.79 l-0.17 -7.43 -11.45 5.59 c-10.75 5.16 -11.36 5.59 -9.44 6.55 l2.10 1.05 0 59.51 0 59.59 2.18 0.26 c3.67 0.44 18.35 0.09 18.87 -0.44z m61.25 0.26 c1.49 0 1.92 -0.35 1.40 -1.05 -0.35 -0.61 -0.96 -14.33 -1.22 -30.41 -0.44 -28.05 -0.52 -29.53 -2.53 -34.52 -3.84 -9.79 -13.54 -17.04 -22.81 -17.04 -1.75 0 -5.94 0.87 -9.17 1.92 l-6.03 2.01 3.50 0.17 c6.82 0.52 9.26 1.22 12.23 3.84 5.33 4.72 5.68 7.43 5.68 43.25 l0 31.72 4.63 0.35 c2.45 0.17 6.29 0.26 8.39 0.09 2.10 -0.17 4.81 -0.35 5.94 -0.35z m-1058.96 -2.36 c-0.61 -1.57 -0.96 -11.62 -1.05 -28.66 -0.09 -23.07 0.09 -26.65 1.49 -30.06 1.83 -4.72 1.83 -4.46 -0.44 -4.46 -1.75 0 -1.83 -0.26 -1.31 -8.56 l0.52 -8.48 -7.60 0.61 c-4.19 0.26 -8.91 0.61 -10.49 0.61 -2.53 0.09 -2.80 0.26 -1.92 1.83 0.61 1.14 0.87 14.51 0.70 40.63 l-0.26 38.88 10.66 0 10.75 0 -1.05 -2.36z m658.67 -10.05 c2.36 -5.33 4.46 -10.05 4.54 -10.49 0.17 -0.35 -0.87 -0.70 -2.27 -0.70 -2.36 0 -2.71 -0.52 -6.55 -9.35 -2.18 -5.24 -6.55 -15.29 -9.70 -22.54 -4.81 -10.92 -5.77 -13.89 -5.77 -17.91 0 -2.97 0.52 -5.59 1.40 -6.82 l1.31 -1.92 -12.76 0 c-7.08 0 -12.67 0.26 -12.50 0.70 3.50 6.90 30.23 64.14 34.52 73.84 1.22 2.71 2.53 4.98 2.88 4.98 0.35 0 2.53 -4.37 4.89 -9.79z m47.53 7.43 c1.92 -4.19 7.86 -17.83 7.86 -18.17 0 -0.17 -1.22 -0.44 -2.71 -0.61 -2.71 -0.26 -2.88 -0.70 -11.88 -21.23 -7.51 -17.13 -9.26 -22.02 -9.61 -26.48 -0.44 -4.72 -0.26 -5.85 1.40 -8.13 l1.92 -2.53 -13.28 0 c-7.25 0 -13.02 0.26 -12.84 0.70 9.26 18.35 11.36 23.51 10.92 27.09 -0.35 3.41 -0.26 3.67 1.75 3.67 1.75 0 2.62 1.14 5.59 7.69 13.89 30.50 18.61 40.37 19.14 40.37 0.35 0 1.14 -1.05 1.75 -2.36z m-675.62 -69.47 c2.01 -3.67 3.67 -6.90 3.67 -7.08 0 -0.26 -1.31 -0.70 -2.88 -0.96 -3.67 -0.70 -10.14 1.22 -14.85 4.37 l-3.67 2.45 3.93 0.70 c4.46 0.79 6.64 2.88 7.51 7.34 0.70 3.58 0.70 3.58 6.29 -6.82z m711.01 -5.94 c1.57 -1.75 1.57 -1.75 -4.19 -1.75 l-5.77 0 1.31 2.45 c0.61 1.31 1.22 4.37 1.22 6.73 l0.09 4.37 2.80 -4.98 c1.57 -2.71 3.58 -5.77 4.54 -6.82z"/>
  <path d="M538.87 482.69 c-31.81 -4.89 -61.08 -17.91 -84.41 -37.49 -33.38 -27.96 -53.48 -62.13 -62.21 -105.73 -2.71 -13.54 -3.41 -46.22 -1.22 -60.73 6.12 -42.03 23.59 -76.89 52.95 -105.29 18.09 -17.56 35.39 -28.57 58.02 -36.96 24.29 -9.09 35.74 -11.01 65.97 -11.01 21.15 -0.09 22.81 0 33.64 2.36 41.24 8.91 75.32 30.15 101.88 63.53 6.29 7.86 14.94 22.02 20.10 32.77 15.82 33.03 21.32 70.52 15.99 108.79 -8.30 58.89 -45.35 109.66 -98.65 135 -16.34 7.78 -28.57 11.71 -46.49 14.85 -9.96 1.66 -44.39 1.66 -55.57 -0.09z m49.37 -17.74 c32.59 -5.59 65.62 -22.89 88.52 -46.31 l4.28 -4.46 -33.73 0 -33.73 0 -0.52 -2.97 c-0.35 -1.66 -5.24 -9.70 -11.71 -19.05 -6.12 -8.91 -18.52 -27 -27.70 -40.28 l-16.60 -24.12 -15.29 0.17 -15.29 0.17 -0.26 33.03 c-0.26 37.49 -0.26 37.40 6.29 41.24 2.01 1.14 6.47 2.80 9.96 3.67 l6.29 1.49 0 3.32 0 3.32 -43.25 0 -43.25 0 0 -2.88 c0 -3.50 1.83 -5.42 6.12 -6.29 4.11 -0.87 8.13 -4.02 9.96 -7.69 1.22 -2.80 1.40 -11.45 1.40 -93.67 0 -82.57 -0.09 -90.88 -1.49 -93.67 -1.57 -3.41 -6.38 -6.90 -10.57 -7.78 -2.53 -0.52 -2.80 -0.87 -2.80 -3.84 0 -1.83 0.52 -3.76 1.22 -4.28 2.10 -1.75 128.80 -0.79 138.15 1.05 12.58 2.36 18.17 4.11 27.35 8.56 14.16 6.90 22.54 16.51 26.91 30.93 1.31 4.11 1.66 8.21 1.66 18.79 0 11.71 -0.26 14.42 -2.01 20.10 -3.76 11.97 -11.71 23.59 -21.41 31.28 -6.47 5.16 -17.56 11.62 -24.20 14.07 -2.62 1.05 -5.33 2.18 -6.03 2.62 -0.87 0.52 2.80 6.29 15.64 24.20 9.26 12.93 19.31 26.65 22.37 30.50 10.22 13.19 22.54 23.77 34.08 29.36 2.18 1.05 4.28 2.71 4.63 3.58 0.52 1.57 1.22 1.05 5.16 -3.93 17.21 -21.58 29.88 -51.03 33.82 -78.38 1.66 -11.88 1.66 -33.03 0 -44.13 -10.92 -72.35 -67.37 -129.15 -138.06 -138.93 -10.92 -1.57 -21.15 -1.40 -36.26 0.35 -37.84 4.54 -75.32 24.82 -100.92 54.70 -29.71 34.69 -44.30 82.14 -38.45 125.48 9 67.89 59.33 123.64 124.78 138.32 19.40 4.37 38.27 5.16 54.96 2.36z m3.76 -151.25 c16.95 -7.17 22.98 -20.71 22.02 -50.24 -0.44 -15.55 -2.01 -23.33 -6.82 -33.38 -3.67 -7.78 -12.50 -16.60 -20.01 -20.10 -9.96 -4.72 -16.51 -5.68 -40.02 -6.20 l-21.15 -0.35 0.17 53.04 0.26 53.13 3.50 1.22 c10.66 3.67 30.50 6.38 45 6.03 9.17 -0.17 10.66 -0.52 17.04 -3.15z"/>
 </g>
 <g fill="#0c9640">
  <path d="M547.61 501.47 c-20.45 -2.01 -45.35 -9.17 -64.92 -18.70 -75.85 -37.14 -120.06 -120.85 -108.18 -204.91 4.81 -33.99 18.44 -66.41 39.93 -94.81 7.08 -9.26 22.02 -24.55 30.93 -31.72 4.02 -3.15 7.25 -5.94 7.25 -6.20 -0.09 -0.26 -0.79 -2.71 -1.75 -5.33 -4.46 -12.76 -0.26 -27.79 11.71 -42.03 6.47 -7.60 13.02 -12.76 29.45 -23.24 16.43 -10.49 24.64 -16.69 36.70 -27.52 10.75 -9.79 26.13 -25.86 32.51 -34.08 2.53 -3.23 4.98 -5.85 5.42 -5.85 0.52 0 2.88 2.62 5.24 5.77 6.03 7.95 33.29 35.39 42.38 42.55 7.08 5.59 18.26 13.19 35.74 24.47 14.68 9.35 24.90 20.45 30.93 33.64 3.76 8.04 4.37 19.49 1.49 27.26 -1.05 2.97 -1.57 5.68 -1.14 6.03 0.35 0.35 4.02 3.50 8.13 6.90 20.53 17.39 40.02 43.52 51.38 68.59 12.50 28.05 17.56 52.08 17.65 83.54 0 54.53 -19.14 101.10 -57.67 139.90 -21.50 21.67 -48.23 38.27 -76.11 47.45 -4.63 1.49 -9 3.23 -9.61 3.76 -1.40 1.14 -12.41 3.50 -21.32 4.63 -7.60 0.96 -35.83 0.87 -46.14 -0.09z m44.21 -21.32 c17.91 -3.15 30.15 -7.08 46.49 -14.85 65.36 -31.11 104.94 -99.35 100.05 -172.58 -3.32 -48.32 -26.30 -94.28 -62.48 -124.78 -22.72 -19.14 -47.53 -31.19 -76.89 -37.49 -10.57 -2.27 -12.76 -2.45 -31.02 -2.36 -27.35 0.09 -39.67 2.18 -63.35 11.01 -22.63 8.39 -39.93 19.40 -58.02 36.96 -29.36 28.40 -46.84 63.26 -53.04 105.29 -2.01 14.07 -1.40 41.85 1.31 55.49 8.65 43.43 28.84 77.77 62.21 105.73 23.33 19.57 52.60 32.59 84.41 37.49 11.01 1.75 40.54 1.75 50.33 0.09z"/>
  <path d="M547.17 468.27 c-60.03 -6.99 -112.28 -49.19 -133.08 -107.39 -6.73 -18.96 -9.44 -35.13 -9.52 -56.10 -0.09 -68.33 40.19 -128.45 103.02 -153.61 29.97 -12.06 66.93 -14.51 97.60 -6.47 61.95 16.08 109.84 70.25 119.62 135.35 1.66 11.36 1.66 37.22 0 49.37 -5.50 38.71 -26.74 77.07 -56.36 101.80 -22.54 18.87 -49.72 31.54 -77.59 36.35 -10.66 1.75 -31.37 2.10 -43.69 0.70z m-1.05 -57.41 c0 -0.44 -2.88 -1.40 -6.29 -2.18 -3.50 -0.87 -7.95 -2.53 -9.96 -3.67 -6.55 -3.84 -6.55 -3.50 -6.29 -43.86 l0.26 -35.65 17.91 -0.17 17.91 -0.17 16.60 24.12 c9.17 13.28 21.58 31.37 27.70 40.28 6.47 9.35 11.36 17.39 11.71 19.05 l0.52 2.97 32.42 0 c20.36 0 32.07 -0.35 31.54 -0.79 -0.44 -0.52 -3.15 -2.10 -6.03 -3.67 -11.62 -6.12 -22.37 -15.55 -32.24 -28.31 -12.15 -15.55 -41.68 -57.50 -41.24 -58.63 0.26 -0.70 0.96 -1.22 1.57 -1.22 2.10 0 13.72 -5.16 20.18 -8.83 17.13 -9.96 27.96 -22.81 33.12 -39.23 2.62 -8.56 2.80 -25.43 0.35 -33.64 -6.47 -21.58 -22.89 -33.55 -54.26 -39.50 -9.35 -1.83 -130.81 -2.80 -132.90 -1.05 -1.92 1.57 -1.49 2.27 1.57 2.88 4.19 0.87 9 4.37 10.57 7.78 1.40 2.80 1.49 11.36 1.49 96.29 0 84.58 -0.17 93.50 -1.40 96.29 -1.83 3.76 -5.94 6.90 -10.14 7.69 -1.75 0.35 -3.84 1.40 -4.72 2.27 -1.49 1.66 -0.70 1.66 39.23 1.66 22.46 0 40.81 -0.35 40.81 -0.70z"/>
  <path d="M554.95 318.85 c-8.56 -0.96 -22.63 -3.76 -27.61 -5.42 l-3.50 -1.22 -0.26 -55.75 -0.17 -55.66 23.77 0.35 c18.61 0.35 25.34 0.79 30.41 2.01 27.35 6.38 39.58 26.30 39.41 64.14 0 29.45 -5.77 42.03 -22.37 49.02 -6.73 2.88 -7.43 2.97 -19.66 3.15 -6.99 0.09 -15.99 -0.17 -20.01 -0.61z"/>
  <path d="M1252.15 317.19 c0 -20.27 0.17 -24.47 1.22 -24.47 2.01 0 2.27 2.97 2.27 24.47 0 21.50 -0.26 24.47 -2.27 24.47 -1.05 0 -1.22 -4.19 -1.22 -24.47z"/>
 </g>
 <g fill="#000000">
  <path d="M1138.56 485.83 c-12.84 -2.27 -18.96 -15.90 -11.80 -26.21 5.68 -8.13 19.22 -9.52 27 -2.71 6.20 5.42 6.47 17.30 0.61 24.03 -3.23 3.67 -10.31 5.85 -15.82 4.89z m9.26 -7.51 c2.18 -1.49 4.72 -6.20 4.72 -9 0 -2.97 -2.27 -7.60 -4.46 -9.17 -1.31 -0.87 -3.84 -1.40 -6.99 -1.40 -4.37 0 -5.33 0.35 -7.60 2.62 -3.23 3.15 -4.11 6.82 -2.80 10.75 2.36 7.34 10.75 10.31 17.13 6.20z"/>
  <path d="M840.59 471.85 l0 -13.98 -4.81 0 c-4.72 0 -4.81 0 -4.81 -2.62 l0 -2.62 13.11 0 13.11 0 0 2.62 c0 2.45 -0.09 2.53 -4.98 2.80 l-5.07 0.26 -0.26 13.81 -0.26 13.72 -2.97 0 -3.06 0 0 -13.98z"/>
  <path d="M869.43 469.23 l0 -16.60 8.74 0 c5.50 0 9.87 0.44 11.71 1.22 4.28 1.75 6.64 5.24 6.64 9.87 0 4.54 -1.05 6.99 -4.11 9.52 l-2.27 1.92 2.18 2.88 c1.22 1.66 2.88 4.02 3.76 5.42 l1.49 2.36 -3.84 0 c-3.67 0 -3.93 -0.17 -6.73 -4.81 l-2.97 -4.89 -4.02 0.26 -4.02 0.26 -0.26 4.63 -0.26 4.54 -3.06 0 -2.97 0 0 -16.60z m19.22 -0.87 c2.27 -2.27 2.27 -6.29 0 -8.30 -1.22 -1.14 -3.23 -1.57 -7.17 -1.66 l-5.50 -0.09 -0.26 5.94 -0.26 5.85 5.77 0 c4.54 0 6.03 -0.35 7.43 -1.75z"/>
  <path d="M908.84 483.47 c0.52 -1.40 3.67 -8.83 7.08 -16.60 l6.29 -14.24 3.76 0 c2.18 0 3.76 0.44 3.76 0.96 0 0.61 2.97 7.78 6.55 15.99 3.58 8.21 6.55 15.29 6.55 15.64 0 0.35 -1.40 0.61 -3.15 0.61 -2.80 0 -3.23 -0.35 -4.54 -3.50 l-1.49 -3.50 -8.13 0 -8.21 0 -1.31 3.50 c-1.31 3.23 -1.66 3.50 -4.72 3.50 -3.32 0 -3.32 0 -2.45 -2.36z m21.23 -12.67 c-1.05 -3.50 -3.84 -8.56 -4.72 -8.56 -0.96 0 -1.31 0.44 -3.41 5.94 l-1.83 4.54 5.33 0 c5.07 0 5.24 -0.09 4.63 -1.92z"/>
  <path d="M959.69 475.17 c-2.45 -5.94 -5.50 -13.46 -6.73 -16.69 l-2.27 -5.94 3.58 0.26 3.58 0.26 4.37 11.62 c2.45 6.29 4.72 11.53 5.07 11.53 0.35 0 2.71 -5.33 5.24 -11.80 l4.63 -11.80 3.50 0 c2.36 0 3.32 0.35 2.97 1.14 -0.26 0.52 -3.23 8.04 -6.73 16.60 l-6.38 15.47 -3.15 0 -3.23 0 -4.46 -10.66z"/>
  <path d="M996.13 469.23 l0 -16.60 11.80 0 11.80 0 0 2.62 0 2.62 -8.83 0 -8.74 0 0.26 4.19 0.26 4.11 7.69 -0.17 7.60 -0.09 0 2.97 0 2.88 -7.60 0.26 -7.69 0.26 0 3.93 0 3.93 7.86 0.17 c4.37 0.09 8.39 0.17 9 0.17 0.61 0.09 1.05 1.22 1.05 2.71 l0 2.62 -12.23 0 -12.23 0 0 -16.60z"/>
  <path d="M1035.28 472.72 c-0.09 -7.17 -0.17 -14.59 -0.17 -16.34 -0.09 -3.23 0 -3.32 3.23 -3.58 l3.23 -0.26 0 13.54 0 13.54 7.25 0.26 7.17 0.26 0.26 2.88 0.26 2.80 -10.49 0 -10.57 0 -0.17 -13.11z"/>
  <path d="M1096.44 472.11 l-0.26 -13.81 -4.54 -0.26 c-4.46 -0.26 -4.63 -0.35 -4.63 -2.88 l0 -2.53 13.11 0 13.11 0 0 2.62 c0 2.62 -0.09 2.62 -4.81 2.62 l-4.72 0 -0.26 13.81 -0.26 13.72 -3.23 0.26 -3.23 0.26 -0.26 -13.81z"/>
  <path d="M1178.93 484.08 c-5.42 -3.32 -6.29 -5.94 -6.29 -19.40 l0 -12.06 3.06 0 3.06 0 0 11.27 c0 9.87 0.17 11.45 1.75 13.46 2.18 2.71 5.42 3.58 9.17 2.36 4.02 -1.31 4.81 -3.84 4.81 -16.17 l0 -10.92 3.06 0 3.06 0 0.17 5.50 c0.35 9.87 -0.35 19.31 -1.57 21.84 -0.70 1.31 -2.53 3.23 -4.11 4.11 -3.84 2.36 -12.23 2.36 -16.17 0z"/>
  <path d="M1217.20 469.23 l0 -16.60 8.30 0 c12.50 0 16.95 2.36 18.35 9.70 0.70 3.58 -0.61 7.43 -3.67 10.57 l-2.18 2.27 3.15 4.63 c1.75 2.62 3.15 4.98 3.15 5.33 0 0.44 -1.49 0.70 -3.41 0.70 -3.06 0 -3.58 -0.35 -6.55 -4.81 -3.06 -4.63 -3.32 -4.81 -7.08 -4.81 l-3.93 0 0 4.81 0 4.81 -3.06 0 -3.06 0 0 -16.60z m18.52 -0.61 c2.10 -1.92 2.01 -6.55 -0.09 -8.48 -1.05 -0.96 -3.76 -1.75 -6.99 -2.01 l-5.33 -0.52 0 6.29 0 6.20 5.42 0 c3.76 0 5.85 -0.44 6.99 -1.49z"/>
  <path d="M902.90 406.14 c-3.93 -8.30 -12.32 -26.30 -18.61 -40.02 -6.38 -13.72 -12.76 -27 -14.16 -29.45 -2.01 -3.58 -2.36 -4.72 -1.40 -5.07 2.45 -0.96 39.41 0 39.76 0.96 0.17 0.61 -1.05 1.31 -2.71 1.57 -3.67 0.70 -7.51 4.89 -7.51 8.21 0 1.31 2.62 8.30 5.77 15.47 3.15 7.25 7.51 17.39 9.70 22.54 2.27 5.16 4.37 9.26 4.81 9.17 0.44 -0.17 3.76 -6.90 7.34 -14.94 l6.55 -14.59 -6.82 -13.72 c-3.76 -7.60 -6.99 -14.07 -7.08 -14.42 -0.17 -0.44 9 -0.61 20.53 -0.52 13.11 0.17 20.80 0.61 20.80 1.14 0 0.52 -0.87 0.96 -1.83 1.14 -1.05 0.17 -3.58 1.83 -5.59 3.67 -3.50 3.23 -3.67 3.67 -3.15 6.90 0.61 3.84 18.26 44.91 19.40 45.26 0.44 0.09 4.89 -9.26 9.87 -20.97 10.66 -24.73 11.27 -27.79 6.38 -32.16 -1.57 -1.40 -3.41 -2.53 -4.19 -2.53 -0.79 0 -1.22 -0.52 -1.05 -1.05 0.52 -1.49 24.99 -2.10 26.39 -0.70 0.61 0.61 -0.26 1.83 -2.71 3.93 -4.89 4.19 -6.20 6.64 -22.72 43.69 -7.95 17.83 -15.38 34.43 -16.51 36.96 -1.22 2.62 -2.53 4.54 -3.06 4.37 -0.70 -0.26 -10.31 -20.45 -22.89 -48.06 -2.45 -5.50 -3.58 -6.29 -4.46 -2.88 -0.52 2.10 -3.76 9.52 -16.51 38.01 -3.15 6.90 -6.12 12.76 -6.47 12.84 -0.44 0.17 -4.02 -6.47 -7.86 -14.77z"/>
  <path d="M796.38 419.07 c-27.79 -6.38 -40.72 -35.48 -27.61 -62.39 3.06 -6.47 12.23 -15.64 19.40 -19.66 9.44 -5.16 17.21 -7.08 28.84 -7.08 11.36 0.09 17.83 1.14 29.53 4.89 l8.13 2.53 -0.26 36.44 c-0.26 39.23 -0.44 38.10 4.37 43.25 l2.27 2.36 -14.94 0 -14.94 0 -0.61 -2.62 c-0.35 -1.40 -0.70 -2.62 -0.87 -2.62 -0.87 0 -7.08 3.06 -8.30 4.11 -2.10 1.66 -18.70 2.18 -24.99 0.79z m28.05 -8.30 c6.90 -3.15 6.55 -1.14 6.47 -33.55 0 -20.10 -0.35 -29.97 -1.05 -32.07 -3.50 -10.05 -21.67 -11.71 -31.98 -2.97 -19.05 16.34 -10.92 62.39 12.15 69.47 3.93 1.14 10.84 0.79 14.42 -0.87z"/>
  <path d="M1045.59 418.99 c-15.73 -4.02 -27.79 -16.34 -31.02 -31.72 -5.07 -24.55 10.92 -49.02 36.35 -55.57 5.77 -1.49 20.01 -1.83 26.30 -0.61 l3.67 0.70 0 -15.90 c0 -18.87 0.26 -18.35 -8.91 -18.26 -3.23 0 -5.94 -0.26 -5.94 -0.70 0 -0.44 3.23 -2.18 7.25 -4.02 3.93 -1.75 12.58 -5.85 19.14 -9.09 l11.97 -5.85 0.26 66.67 0.26 66.58 2.18 3.23 c1.22 1.75 2.45 3.23 2.88 3.23 0.35 0 0.61 0.44 0.61 0.87 0 0.52 -5.50 0.87 -14.85 0.87 l-14.85 0 0 -2.71 c0 -3.15 0.17 -3.15 -8.74 0.61 -7.08 2.97 -18.61 3.67 -26.56 1.66z m29.62 -8.13 c6.03 -2.97 5.68 -0.61 5.68 -35.56 l0 -31.63 -1.92 -1.83 c-5.42 -4.98 -16.34 -6.90 -24.20 -4.11 -11.80 4.11 -18.26 17.39 -17.30 35.83 0.87 17.30 7.95 31.28 18.79 37.05 5.16 2.71 13.81 2.88 18.96 0.26z"/>
  <path d="M1153.68 419.42 c-9.70 -1.75 -17.91 -6.29 -24.47 -13.37 -6.82 -7.43 -9.87 -16.08 -9.87 -27.96 0 -22.37 14.85 -40.28 38.45 -46.57 11.53 -3.06 28.75 -1.57 44.83 3.67 l6.73 2.27 0 35.74 c0 38.36 0.09 39.50 4.54 44.21 l1.83 2.01 -14.94 0 -14.94 0 -0.26 -2.36 c-0.35 -2.88 -1.05 -2.88 -8.30 0.17 -6.20 2.53 -16.17 3.50 -23.59 2.18z m27.79 -9.35 l4.28 -2.27 0 -31.28 0 -31.28 -2.62 -3.06 c-3.93 -4.37 -9 -6.12 -16.95 -5.59 -15.20 0.96 -23.07 11.18 -23.94 31.02 -0.87 20.36 6.82 37.40 19.31 43.08 5.68 2.62 14.51 2.36 19.92 -0.61z"/>
  <path d="M85.63 418.11 c0 -0.70 1.31 -1.83 2.88 -2.53 6.47 -2.62 8.56 -6.55 27.44 -50.33 9.79 -22.81 19.57 -45.52 21.76 -50.42 2.10 -4.89 3.84 -9.26 3.84 -9.79 0 -0.44 -0.79 -1.14 -1.75 -1.40 -2.45 -0.79 -1.49 -1.83 4.46 -4.89 2.88 -1.40 7.95 -4.37 11.36 -6.47 3.32 -2.18 6.82 -3.93 7.69 -3.93 1.22 0 2.27 1.83 4.46 7.69 16.86 44.39 40.72 105.29 43.25 110.36 2.36 4.54 7.25 9.26 10.57 10.05 1.22 0.35 2.01 0.96 1.83 1.57 -0.26 0.70 -8.13 0.96 -27.79 0.96 -23.59 0 -27.44 -0.17 -27.44 -1.31 0 -0.79 1.31 -1.49 3.76 -1.92 4.63 -0.79 8.39 -3.32 9.79 -6.82 0.96 -2.45 0.79 -3.58 -1.83 -11.36 l-2.88 -8.74 -30.85 -0.17 c-16.95 -0.09 -31.54 -0.17 -32.33 -0.17 -1.14 -0.09 -2.45 2.01 -4.81 7.78 -1.83 4.37 -3.23 8.74 -3.32 9.87 0 4.63 4.19 8.91 10.05 9.96 0.96 0.17 1.83 0.96 2.01 1.83 0.26 1.40 -0.96 1.49 -15.90 1.49 -13.81 0 -16.25 -0.17 -16.25 -1.31z m87.64 -36.87 c0.61 -0.96 -25.95 -69.47 -26.83 -69.38 -1.05 0 -30.32 68.33 -29.71 69.29 0.52 0.87 56.01 0.96 56.53 0.09z"/>
  <path d="M1231.44 418.72 c-2.10 -0.17 -3.76 -0.35 -3.76 -0.44 0 -0.17 0.79 -1.75 1.75 -3.67 1.66 -3.32 1.75 -5.16 1.75 -59.07 0 -63.70 0.79 -58.11 -8.48 -57.93 -2.97 0 -5.50 -0.26 -5.50 -0.70 0 -0.44 3.67 -2.36 8.13 -4.37 4.37 -2.01 12.84 -6.12 18.79 -9.09 5.85 -3.06 10.66 -5.24 10.75 -4.89 0 0.35 0 15.03 -0.09 32.68 -0.09 17.65 0.09 32.51 0.44 33.03 0.26 0.52 2.36 -0.52 5.07 -2.53 13.37 -9.96 29.10 -13.89 40.46 -9.96 5.94 2.01 12.58 8.83 15.20 15.55 2.01 5.07 2.10 6.29 2.36 32.33 0.17 14.94 0.52 28.40 0.79 29.97 0.26 1.57 1.57 4.11 2.97 5.77 l2.53 2.88 -8.30 0.52 c-4.63 0.35 -11.88 0.35 -16.08 0 l-7.69 -0.52 0.79 -2.71 c0.44 -1.49 0.79 -15.73 0.79 -31.63 0 -32.77 -0.44 -35.83 -5.68 -40.46 -4.89 -4.19 -13.19 -4.63 -19.22 -0.96 -1.40 0.96 -4.63 2.71 -7.17 3.93 -7.86 4.02 -7.43 1.75 -7.08 33.82 0.26 31.54 0.44 32.59 6.47 35.39 5.50 2.62 3.15 3.32 -11.97 3.32 -7.86 0 -15.99 -0.09 -18 -0.26z"/>
  <path d="M231.56 418.20 c0 -0.17 0.61 -1.75 1.31 -3.41 1.14 -2.62 1.31 -9.09 1.31 -38.88 0 -34.69 -0.09 -35.83 -1.75 -38.01 -1.05 -1.31 -3.15 -2.53 -4.81 -2.88 -1.66 -0.26 -3.06 -1.05 -3.06 -1.66 0 -0.70 3.50 -1.22 12.50 -1.66 6.82 -0.26 14.51 -0.79 17.13 -1.14 l4.72 -0.52 -0.61 8.83 c-0.70 9.70 -0.09 10.84 2.88 5.94 4.63 -7.34 13.54 -13.28 21.84 -14.24 3.93 -0.44 13.19 1.05 13.19 2.10 0 0.26 -1.92 3.84 -4.28 8.04 -2.36 4.11 -6.03 10.66 -8.13 14.42 -4.98 9.17 -6.20 9.61 -5.50 1.75 0.44 -4.89 0.26 -6.64 -1.05 -9 -5.24 -10.14 -16.34 -0.26 -18.79 16.60 -1.05 7.34 -0.26 43.08 0.96 46.40 0.44 1.14 1.83 3.06 3.06 4.19 1.22 1.22 2.27 2.45 2.27 2.88 0 0.35 -7.43 0.61 -16.60 0.61 -9.09 0 -16.60 -0.17 -16.60 -0.35z"/>
 </g>
</svg>